<svg width="213" height="72" viewBox="0 0 213 72" fill="none" xmlns="http://www.w3.org/2000/svg">
<path d="M93.8111 1.54545L99.9634 20.8849H100.2L106.364 1.54545H112.33L103.555 27H96.62L87.8327 1.54545H93.8111ZM121.842 27.3729C119.878 27.3729 118.187 26.9751 116.771 26.1797C115.362 25.3759 114.276 24.2408 113.514 22.7741C112.752 21.2992 112.371 19.555 112.371 17.5415C112.371 15.5778 112.752 13.8543 113.514 12.3711C114.276 10.8879 115.349 9.73201 116.733 8.90341C118.125 8.07481 119.758 7.66051 121.63 7.66051C122.89 7.66051 124.062 7.86352 125.148 8.26953C126.241 8.66726 127.194 9.26799 128.006 10.0717C128.827 10.8755 129.465 11.8864 129.92 13.1044C130.376 14.3142 130.604 15.7311 130.604 17.3551V18.8093H114.484V15.5281H125.62C125.62 14.7657 125.454 14.0904 125.123 13.5021C124.791 12.9138 124.331 12.454 123.743 12.1225C123.163 11.7828 122.488 11.6129 121.717 11.6129C120.914 11.6129 120.201 11.7994 119.579 12.1722C118.966 12.5368 118.486 13.0298 118.138 13.6513C117.79 14.2644 117.612 14.948 117.603 15.7021V18.8217C117.603 19.7663 117.777 20.5825 118.125 21.2702C118.482 21.958 118.983 22.4883 119.629 22.8612C120.275 23.234 121.042 23.4205 121.929 23.4205C122.517 23.4205 123.055 23.3376 123.544 23.1719C124.033 23.0062 124.452 22.7576 124.8 22.4261C125.148 22.0947 125.413 21.6887 125.595 21.2081L130.492 21.5312C130.244 22.7079 129.734 23.7353 128.963 24.6136C128.201 25.4837 127.215 26.1631 126.005 26.652C124.804 27.1326 123.416 27.3729 121.842 27.3729ZM139.354 15.9631V27H134.059V1.54545H139.205V11.2773H139.429C139.859 10.1504 140.555 9.26799 141.517 8.62997C142.478 7.98366 143.683 7.66051 145.133 7.66051C146.459 7.66051 147.615 7.95052 148.601 8.53054C149.595 9.10227 150.366 9.92673 150.913 11.0039C151.468 12.0728 151.742 13.353 151.733 14.8445V27H146.438V15.7891C146.447 14.6125 146.148 13.6969 145.544 13.0423C144.947 12.3877 144.11 12.0604 143.033 12.0604C142.312 12.0604 141.674 12.2137 141.119 12.5202C140.572 12.8268 140.141 13.2743 139.826 13.8626C139.52 14.4426 139.362 15.1428 139.354 15.9631ZM155.9 27V7.90909H161.195V27H155.9ZM158.56 5.44815C157.773 5.44815 157.097 5.18714 156.534 4.66513C155.979 4.13482 155.701 3.50095 155.701 2.76349C155.701 2.03433 155.979 1.40874 156.534 0.886719C157.097 0.356415 157.773 0.0912629 158.56 0.0912629C159.347 0.0912629 160.018 0.356415 160.573 0.886719C161.137 1.40874 161.419 2.03433 161.419 2.76349C161.419 3.50095 161.137 4.13482 160.573 4.66513C160.018 5.18714 159.347 5.44815 158.56 5.44815ZM174.062 27.3729C172.106 27.3729 170.424 26.9586 169.016 26.13C167.615 25.2931 166.538 24.133 165.784 22.6499C165.038 21.1667 164.666 19.4598 164.666 17.5291C164.666 15.5736 165.043 13.8584 165.797 12.3835C166.559 10.9003 167.64 9.74444 169.041 8.91584C170.441 8.07895 172.106 7.66051 174.037 7.66051C175.703 7.66051 177.161 7.96295 178.412 8.56783C179.663 9.1727 180.653 10.022 181.383 11.1158C182.112 12.2095 182.514 13.4938 182.588 14.9688H177.592C177.451 14.0159 177.078 13.2494 176.473 12.6694C175.877 12.0811 175.093 11.7869 174.124 11.7869C173.304 11.7869 172.587 12.0107 171.974 12.4581C171.369 12.8973 170.897 13.5394 170.557 14.3846C170.217 15.2298 170.047 16.2531 170.047 17.4545C170.047 18.6726 170.213 19.7083 170.544 20.5618C170.884 21.4152 171.361 22.0657 171.974 22.5131C172.587 22.9606 173.304 23.1843 174.124 23.1843C174.729 23.1843 175.272 23.06 175.752 22.8114C176.241 22.5629 176.643 22.2024 176.958 21.7301C177.281 21.2495 177.492 20.6737 177.592 20.0025H182.588C182.505 21.4608 182.108 22.7451 181.395 23.8555C180.691 24.9575 179.717 25.8192 178.474 26.4407C177.231 27.0621 175.761 27.3729 174.062 27.3729ZM191.273 1.54545V27H185.978V1.54545H191.273ZM204.215 27.3729C202.251 27.3729 200.56 26.9751 199.144 26.1797C197.735 25.3759 196.649 24.2408 195.887 22.7741C195.125 21.2992 194.744 19.555 194.744 17.5415C194.744 15.5778 195.125 13.8543 195.887 12.3711C196.649 10.8879 197.723 9.73201 199.106 8.90341C200.498 8.07481 202.131 7.66051 204.003 7.66051C205.263 7.66051 206.435 7.86352 207.521 8.26953C208.614 8.66726 209.567 9.26799 210.379 10.0717C211.2 10.8755 211.838 11.8864 212.293 13.1044C212.749 14.3142 212.977 15.7311 212.977 17.3551V18.8093H196.857V15.5281H207.993C207.993 14.7657 207.827 14.0904 207.496 13.5021C207.164 12.9138 206.705 12.454 206.116 12.1225C205.536 11.7828 204.861 11.6129 204.09 11.6129C203.287 11.6129 202.574 11.7994 201.953 12.1722C201.339 12.5368 200.859 13.0298 200.511 13.6513C200.163 14.2644 199.985 14.948 199.976 15.7021V18.8217C199.976 19.7663 200.15 20.5825 200.498 21.2702C200.855 21.958 201.356 22.4883 202.002 22.8612C202.649 23.234 203.415 23.4205 204.302 23.4205C204.89 23.4205 205.428 23.3376 205.917 23.1719C206.406 23.0062 206.825 22.7576 207.173 22.4261C207.521 22.0947 207.786 21.6887 207.968 21.2081L212.865 21.5312C212.617 22.7079 212.107 23.7353 211.336 24.6136C210.574 25.4837 209.588 26.1631 208.378 26.652C207.177 27.1326 205.789 27.3729 204.215 27.3729Z" fill="white"/>
<path d="M93.0227 45.7273H99.0909L105.5 61.3636H105.773L112.182 45.7273H118.25V69H113.477V53.8523H113.284L107.261 68.8864H104.011L97.9886 53.7955H97.7955V69H93.0227V45.7273ZM127.19 69.3295C126.077 69.3295 125.084 69.1364 124.213 68.75C123.342 68.3561 122.652 67.7765 122.145 67.0114C121.645 66.2386 121.395 65.2765 121.395 64.125C121.395 63.1553 121.573 62.3409 121.929 61.6818C122.285 61.0227 122.77 60.4924 123.384 60.0909C123.997 59.6894 124.694 59.3864 125.474 59.1818C126.262 58.9773 127.088 58.8333 127.952 58.75C128.967 58.6439 129.785 58.5455 130.406 58.4545C131.027 58.3561 131.478 58.2121 131.759 58.0227C132.039 57.8333 132.179 57.553 132.179 57.1818V57.1136C132.179 56.3939 131.952 55.8371 131.497 55.4432C131.05 55.0492 130.414 54.8523 129.588 54.8523C128.717 54.8523 128.024 55.0455 127.509 55.4318C126.993 55.8106 126.652 56.2879 126.486 56.8636L122.009 56.5C122.236 55.4394 122.683 54.5227 123.349 53.75C124.016 52.9697 124.876 52.3712 125.929 51.9545C126.99 51.5303 128.217 51.3182 129.611 51.3182C130.58 51.3182 131.509 51.4318 132.395 51.6591C133.289 51.8864 134.08 52.2386 134.77 52.7159C135.467 53.1932 136.016 53.8068 136.418 54.5568C136.819 55.2992 137.02 56.1894 137.02 57.2273V69H132.429V66.5795H132.293C132.012 67.125 131.637 67.6061 131.168 68.0227C130.698 68.4318 130.134 68.7538 129.474 68.9886C128.815 69.2159 128.054 69.3295 127.19 69.3295ZM128.577 65.9886C129.289 65.9886 129.918 65.8485 130.463 65.5682C131.009 65.2803 131.437 64.8939 131.747 64.4091C132.058 63.9242 132.213 63.375 132.213 62.7614V60.9091C132.062 61.0076 131.853 61.0985 131.588 61.1818C131.33 61.2576 131.039 61.3295 130.713 61.3977C130.387 61.4583 130.062 61.5152 129.736 61.5682C129.41 61.6136 129.115 61.6553 128.849 61.6932C128.281 61.7765 127.785 61.9091 127.361 62.0909C126.937 62.2727 126.607 62.5189 126.372 62.8295C126.137 63.1326 126.02 63.5114 126.02 63.9659C126.02 64.625 126.259 65.1288 126.736 65.4773C127.221 65.8182 127.834 65.9886 128.577 65.9886ZM155.298 56.5227L150.866 56.7955C150.791 56.4167 150.628 56.0758 150.378 55.7727C150.128 55.4621 149.798 55.2159 149.389 55.0341C148.988 54.8447 148.507 54.75 147.946 54.75C147.196 54.75 146.563 54.9091 146.048 55.2273C145.533 55.5379 145.276 55.9545 145.276 56.4773C145.276 56.8939 145.442 57.2462 145.776 57.5341C146.109 57.822 146.681 58.053 147.491 58.2273L150.651 58.8636C152.348 59.2121 153.613 59.7727 154.446 60.5455C155.279 61.3182 155.696 62.3333 155.696 63.5909C155.696 64.7348 155.359 65.7386 154.685 66.6023C154.018 67.4659 153.101 68.1402 151.935 68.625C150.776 69.1023 149.438 69.3409 147.923 69.3409C145.613 69.3409 143.772 68.8598 142.401 67.8977C141.037 66.928 140.238 65.6098 140.003 63.9432L144.764 63.6932C144.908 64.3977 145.257 64.9356 145.81 65.3068C146.363 65.6705 147.071 65.8523 147.935 65.8523C148.783 65.8523 149.465 65.6894 149.98 65.3636C150.503 65.0303 150.768 64.6023 150.776 64.0795C150.768 63.6402 150.582 63.2803 150.219 63C149.855 62.7121 149.295 62.4924 148.537 62.3409L145.514 61.7386C143.81 61.3977 142.541 60.8068 141.707 59.9659C140.882 59.125 140.469 58.053 140.469 56.75C140.469 55.6288 140.772 54.6629 141.378 53.8523C141.991 53.0417 142.851 52.4167 143.957 51.9773C145.071 51.5379 146.374 51.3182 147.866 51.3182C150.071 51.3182 151.806 51.7841 153.071 52.7159C154.344 53.6477 155.086 54.9167 155.298 56.5227ZM168.028 51.5455V55.1818H157.517V51.5455H168.028ZM159.903 47.3636H164.744V63.6364C164.744 64.0833 164.813 64.4318 164.949 64.6818C165.085 64.9242 165.275 65.0947 165.517 65.1932C165.767 65.2917 166.055 65.3409 166.381 65.3409C166.608 65.3409 166.835 65.322 167.062 65.2841C167.29 65.2386 167.464 65.2045 167.585 65.1818L168.347 68.7841C168.104 68.8598 167.763 68.947 167.324 69.0455C166.884 69.1515 166.35 69.2159 165.722 69.2386C164.555 69.2841 163.532 69.1288 162.653 68.7727C161.782 68.4167 161.104 67.8636 160.619 67.1136C160.134 66.3636 159.896 65.4167 159.903 64.2727V47.3636ZM171.182 69V51.5455H176.023V69H171.182ZM173.614 49.2955C172.894 49.2955 172.277 49.0568 171.761 48.5795C171.254 48.0947 171 47.5152 171 46.8409C171 46.1742 171.254 45.6023 171.761 45.125C172.277 44.6402 172.894 44.3977 173.614 44.3977C174.333 44.3977 174.947 44.6402 175.455 45.125C175.97 45.6023 176.227 46.1742 176.227 46.8409C176.227 47.5152 175.97 48.0947 175.455 48.5795C174.947 49.0568 174.333 49.2955 173.614 49.2955Z" fill="white"/>
<path d="M64 5H10C4.47715 5 0 9.47715 0 15V62C0 67.5228 4.47715 72 10 72H64C69.5229 72 74 67.5228 74 62V15C74 9.47715 69.5229 5 64 5Z" fill="white"/>
<path d="M26.6187 26.2437L24.3758 32.5714H49.6242L47.3812 26.2437C46.9945 25.158 45.9547 24.4286 44.7859 24.4286H29.2141C28.0453 24.4286 27.0055 25.158 26.6187 26.2437ZM18.4031 32.9786L21.4281 24.454C22.5883 21.1884 25.7078 19 29.2141 19H44.7859C48.2922 19 51.4117 21.1884 52.5719 24.454L55.5969 32.9786C57.5906 33.7929 59 35.7353 59 38V50.2143V54.2857C59 55.7871 57.7711 57 56.25 57H53.5C51.9789 57 50.75 55.7871 50.75 54.2857V50.2143H23.25V54.2857C23.25 55.7871 22.0211 57 20.5 57H17.75C16.2289 57 15 55.7871 15 54.2857V50.2143V38C15 35.7353 16.4094 33.7929 18.4031 32.9786ZM26 40.7143C26 39.9944 25.7103 39.304 25.1945 38.795C24.6788 38.286 23.9793 38 23.25 38C22.5207 38 21.8212 38.286 21.3055 38.795C20.7897 39.304 20.5 39.9944 20.5 40.7143C20.5 41.4342 20.7897 42.1245 21.3055 42.6336C21.8212 43.1426 22.5207 43.4286 23.25 43.4286C23.9793 43.4286 24.6788 43.1426 25.1945 42.6336C25.7103 42.1245 26 41.4342 26 40.7143ZM50.75 43.4286C51.4793 43.4286 52.1788 43.1426 52.6945 42.6336C53.2103 42.1245 53.5 41.4342 53.5 40.7143C53.5 39.9944 53.2103 39.304 52.6945 38.795C52.1788 38.286 51.4793 38 50.75 38C50.0207 38 49.3212 38.286 48.8055 38.795C48.2897 39.304 48 39.9944 48 40.7143C48 41.4342 48.2897 42.1245 48.8055 42.6336C49.3212 43.1426 50.0207 43.4286 50.75 43.4286Z" fill="#38106A"/>
</svg>
